<?xml version="1.0" encoding="UTF-8"?>
<svg width="80px" height="80px" viewBox="0 0 80 80" version="1.1" xmlns="http://www.w3.org/2000/svg" xmlns:xlink="http://www.w3.org/1999/xlink">
    <!-- Generator: Sketch 57.1 (83088) - https://sketch.com -->
    <title>Icon / 80px / ic-retromock</title>
    <desc>Created with Sketch.</desc>
    <g id="Icon-/-80px-/-ic-retromock" stroke="none" stroke-width="1" fill="none" fill-rule="evenodd">
        <g id="Group-5" transform="translate(8.000000, 7.000000)">
            <g id="Group-2" transform="translate(23.000000, 47.000000)" fill="#D8262C" fill-rule="nonzero">
                <path d="M0,17 L0,8 L3,8 L3,12.198 L12.199,3 L9,3 L9,0 L18,0 L18,9 L15,9 L15,4.877 L5.877,14 L9,14 L9,17 L2.87788641,17 L0,17 Z" id="Combined-Shape"></path>
            </g>
            <path d="M45.625,19.3047 C45.625,17.6477 44.282,16.3047 42.625,16.3047 C40.968,16.3047 39.625,17.6477 39.625,19.3047 C39.625,20.9607 40.968,22.3047 42.625,22.3047 C44.282,22.3047 45.625,20.9607 45.625,19.3047" id="Fill-2" fill="#D92327"></path>
            <path d="M24.375,19.3047 C24.375,17.6477 23.032,16.3047 21.375,16.3047 C19.718,16.3047 18.375,17.6477 18.375,19.3047 C18.375,20.9607 19.718,22.3047 21.375,22.3047 C23.032,22.3047 24.375,20.9607 24.375,19.3047" id="Fill-4" fill="#D92327"></path>
            <path d="M57,30.266196 L57,28.5845049 C57,21.734909 54.396,15.7181697 50.057,11.3671435 L58.026,3.40906952 C58.808,2.62914032 58.808,1.36587472 58.026,0.584946897 C57.245,-0.194982299 55.979,-0.194982299 55.198,0.584946897 L46.994,8.77670002 C42.871,5.85371314 37.719,4.15903984 32,4.15903984 C26.29,4.15903984 21.146,5.84872 17.026,8.76471648 L8.836,0.584946897 C8.055,-0.194982299 6.789,-0.194982299 6.008,0.584946897 C5.227,1.36587472 5.227,2.62914032 6.008,3.40906952 L13.96,11.3511654 C9.611,15.7021917 7,21.7259214 7,28.5845049 L7,30.266196 C2.997,31.1769456 0,34.7610248 0,39.0301635 L0,54.0095975 C0,57.8643052 3.141,61 7,61 C10.859,61 14,57.8643052 14,54.0095975 L14,53.0109685 L10,53.0109685 L10,54.0095975 C10,55.6623284 8.654,57.0054843 7,57.0054843 C5.346,57.0054843 4,55.6623284 4,54.0095975 L4,39.0301635 C4,36.2779422 6.243,34.0370188 9,34.0370188 L11,34.0370188 L11,28.5845049 C11,16.7467575 19.832,8.15355557 32,8.15355557 C44.168,8.15355557 53,16.7467575 53,28.5845049 L53,34.0370188 L55,34.0370188 C57.757,34.0370188 60,36.2779422 60,39.0301635 L60,54.0095975 C60,55.6623284 58.654,57.0054843 57,57.0054843 C55.346,57.0054843 54,55.6623284 54,54.0095975 L54,53.0109685 L50,53.0109685 L50,54.0095975 C50,57.8643052 53.141,61 57,61 C60.859,61 64,57.8643052 64,54.0095975 L64,39.0301635 C64,34.7610248 61.003,31.1769456 57,30.266196" id="Fill-6" fill="#D92327"></path>
            <path d="M51,31 L51,35 L51,39 L51,43 L51,66 L47,66 L47,43 L17,43 L17,66 L13,66 L13,31 L51,31 Z M47,39 L47,35 L17,35 L17,39 L47,39 Z" id="Combined-Shape" fill="#D92327"></path>
        </g>
    </g>
</svg>